<svg xmlns="http://www.w3.org/2000/svg" width="36" height="36" viewBox="0 0 36 36"><g transform="translate(-1356 -32)"><circle cx="18" cy="18" r="18" transform="translate(1356 32)" fill="#464993"/><g transform="translate(1377.604 45.429)"><path d="M339.392,149.811l7.46,4.716V144.9Z" transform="translate(-339.392 -144.896)" fill="#fff"/></g><g transform="translate(1362.936 45.429)"><path d="M0,144.9v9.632l7.46-4.716Z" transform="translate(0 -144.896)" fill="#fff"/></g><g transform="translate(1362.977 42.624)"><path d="M21.664,80H2.3A1.366,1.366,0,0,0,.96,81.177l11.023,7.262,11.023-7.262A1.366,1.366,0,0,0,21.664,80Z" transform="translate(-0.96 -80)" fill="#fff"/></g><g transform="translate(1362.98 51.178)"><path d="M14.381,277.921l-1.957,1.289a.694.694,0,0,1-.761,0l-1.957-1.29-8.683,5.492a1.364,1.364,0,0,0,1.339,1.167H21.725a1.364,1.364,0,0,0,1.339-1.167Z" transform="translate(-1.024 -277.92)" fill="#fff"/></g></g></svg>