<svg xmlns="http://www.w3.org/2000/svg" width="15.784" height="21.045" viewBox="0 0 15.784 21.045"><path d="M78.907,4.233V2.387a1.748,1.748,0,0,0,.877-1.51V.438A.438.438,0,0,0,79.345,0H64.438A.438.438,0,0,0,64,.438V.877a1.748,1.748,0,0,0,.877,1.51V4.233A6.147,6.147,0,0,0,66.909,8.8l1.919,1.727-1.919,1.727a6.147,6.147,0,0,0-2.032,4.563v1.847A1.748,1.748,0,0,0,64,20.168v.438a.438.438,0,0,0,.438.438H79.345a.438.438,0,0,0,.438-.438v-.438a1.748,1.748,0,0,0-.877-1.51V16.812a6.147,6.147,0,0,0-2.032-4.563l-1.919-1.727L76.875,8.8A6.147,6.147,0,0,0,78.907,4.233ZM75.7,7.492,73.059,9.871a.877.877,0,0,0,0,1.3L75.7,13.553a4.392,4.392,0,0,1,1.451,3.259v1.6h-1.1l-3.814-5.086a.454.454,0,0,0-.7,0l-3.814,5.086h-1.1v-1.6a4.392,4.392,0,0,1,1.451-3.259l2.643-2.378a.877.877,0,0,0,0-1.3L68.082,7.492a4.392,4.392,0,0,1-1.451-3.259v-1.6H77.153v1.6A4.392,4.392,0,0,1,75.7,7.492Z" transform="translate(-64)" fill="#fff"/><path d="M178.286,149.333h-6.044a.438.438,0,0,0-.325.733l3.053,2.816a.438.438,0,0,0,.588,0l3.052-2.816a.438.438,0,0,0-.325-.733Z" transform="translate(-167.372 -143.195)" fill="#fff"/></svg>