<svg xmlns="http://www.w3.org/2000/svg" width="36" height="36" viewBox="0 0 36 36"><g transform="translate(-1006 -30)"><circle cx="3.78" cy="3.78" r="3.78" transform="translate(1020.22 44.22)" fill="#4d4f93"/><path d="M24,6A18,18,0,1,0,42,24,18,18,0,0,0,24,6ZM35.121,28.575a6.811,6.811,0,0,1-1.814,4.633A6.936,6.936,0,0,1,28.624,35H19.376a6.934,6.934,0,0,1-4.683-1.8,6.81,6.81,0,0,1-1.814-4.633v-9.15a6.811,6.811,0,0,1,1.814-4.633A6.935,6.935,0,0,1,19.376,13h9.248a6.934,6.934,0,0,1,4.683,1.8,6.811,6.811,0,0,1,1.814,4.633Z" transform="translate(1000 24)" fill="#4d4f93"/><path d="M143.243,131.541c-2.253-.062-6.761-.062-9.014,0a4.725,4.725,0,0,0-3.336,1.216,4.784,4.784,0,0,0-1.229,3.3c-.058,2.2,0,8.8,0,8.8a4.807,4.807,0,0,0,1.229,3.3,4.724,4.724,0,0,0,3.336,1.216c2.253.062,6.761.062,9.014,0a4.726,4.726,0,0,0,3.336-1.216,4.784,4.784,0,0,0,1.229-3.3v-8.8a4.784,4.784,0,0,0-1.229-3.3A4.725,4.725,0,0,0,143.243,131.541Zm-4.507,14.777a5.859,5.859,0,1,1,5.859-5.859A5.859,5.859,0,0,1,138.736,146.318Zm5.884-10.509a1.172,1.172,0,1,1,1.172-1.172,1.172,1.172,0,0,1-1.172,1.172Z" transform="translate(885.264 -92.459)" fill="#4d4f93"/></g></svg>