<svg xmlns="http://www.w3.org/2000/svg" width="36" height="36" viewBox="0 0 36 36"><g transform="translate(-1167 -32)"><circle cx="18" cy="18" r="18" transform="translate(1167 32)" fill="#464993"/><path d="M19.513,14.709l-2.8-2.8a1.86,1.86,0,0,0-3.1.7,1.9,1.9,0,0,1-2.2,1.2A8.625,8.625,0,0,1,6.228,8.616a1.81,1.81,0,0,1,1.2-2.2,1.86,1.86,0,0,0,.7-3.1l-2.8-2.8a2,2,0,0,0-2.7,0l-1.9,1.9c-1.9,2,.2,7.292,4.895,11.987S15.618,21.3,17.615,19.3l1.9-1.9A2,2,0,0,0,19.513,14.709Z" transform="translate(1174.962 39.979)" fill="#fff"/></g></svg>